<?xml version="1.0" encoding="utf-8"?>
<!-- Generator: Adobe Illustrator 19.2.1, SVG Export Plug-In . SVG Version: 6.00 Build 0)  -->
<svg version="1.1" id="BUSINESS" xmlns="http://www.w3.org/2000/svg" xmlns:xlink="http://www.w3.org/1999/xlink" x="0px" y="0px"
	 viewBox="0 0 24 24" style="enable-background:new 0 0 24 24;" xml:space="preserve">
<style type="text/css">
	.st0{fill:#CC0000;}
</style>
<g id="Conversation">
	<path class="st0" d="M5.8,19.4C6.5,18.9,7,18,7,17c0-1.7-1.3-3-3-3s-3,1.3-3,3c0,1,0.5,1.9,1.2,2.4C0.9,20.1,0,21.4,0,23v1h8v-1
		C8,21.4,7.1,20.1,5.8,19.4z M2,17c0-1.1,0.9-2,2-2s2,0.9,2,2s-0.9,2-2,2S2,18.1,2,17z M1,23c0-1.7,1.3-3,3-3s3,1.3,3,3H1z"/>
	<path class="st0" d="M21.8,5.4C22.5,4.9,23,4,23,3c0-1.7-1.3-3-3-3s-3,1.3-3,3c0,1,0.5,1.9,1.2,2.4C16.9,6.1,16,7.4,16,9v1h8V9
		C24,7.4,23.1,6.1,21.8,5.4z M18,3c0-1.1,0.9-2,2-2s2,0.9,2,2s-0.9,2-2,2S18,4.1,18,3z M17,9c0-1.7,1.3-3,3-3s3,1.3,3,3H17z"/>
	<path class="st0" d="M15.7,15.6l0.7,0.8l2.7-2.3v2.4c0,1.9-1.6,3.5-3.5,3.5H11v1h4.5c2.5,0,4.5-2,4.5-4.5v-2.4l2.7,2.3l0.7-0.8
		l-3.8-3.3L15.7,15.6z"/>
	<path class="st0" d="M4,7.5v2.4L1.3,7.6L0.7,8.4l3.8,3.3l3.8-3.3L7.7,7.6L5,9.9V7.5C5,5.6,6.6,4,8.5,4H9V3H8.5C6,3,4,5,4,7.5z"/>
	<rect x="11" y="3" class="st0" width="2" height="1"/>
</g>
</svg>
