<svg id="Layer_1" data-name="Layer 1" xmlns="http://www.w3.org/2000/svg" viewBox="0 0 233.87 141.95"><defs><style>.cls-1{fill:#c6c7c8;}.cls-2{fill:#fff;}.cls-3{fill:red;}</style></defs><title>team2work-white</title><path class="cls-1" d="M99.94,10C37.73,30-3.92,73.52,6.91,107.24s70,44.84,132.25,24.86,103.86-63.52,93-97.23S162.14-10,99.94,10Zm21.66,105.28c-49.72,16-96.72,8.06-105-17.68s25.33-59.55,75-75.52,96.72-8.06,105,17.68S171.31,99.31,121.59,115.29Z" transform="translate(-0.03 -0.08)"/><path class="cls-2" d="M9.07,73.16l0.44,2.72a11.42,11.42,0,0,1-2.32.27,5.26,5.26,0,0,1-2.6-.53,3,3,0,0,1-1.3-1.39,11,11,0,0,1-.38-3.63V60.15H0.66V57.76H2.92V53.27L6,51.42v6.34H9.07v2.39H6V70.77a5.34,5.34,0,0,0,.16,1.69,1.28,1.28,0,0,0,.53.6,2,2,0,0,0,1.05.22A10,10,0,0,0,9.07,73.16Z" transform="translate(-0.03 -0.08)"/><path class="cls-2" d="M24.5,70.06l3.18,0.39a7.76,7.76,0,0,1-2.79,4.32,8.38,8.38,0,0,1-5.2,1.54,8.3,8.3,0,0,1-6.31-2.45A9.58,9.58,0,0,1,11,67q0-4.58,2.36-7.11a8,8,0,0,1,6.12-2.53,7.76,7.76,0,0,1,5.95,2.48,9.85,9.85,0,0,1,2.31,7q0,0.27,0,.82H14.23a7,7,0,0,0,1.69,4.58,5,5,0,0,0,3.79,1.59,4.71,4.71,0,0,0,2.89-.89A5.9,5.9,0,0,0,24.5,70.06Zm-10.1-5H24.53a6.15,6.15,0,0,0-1.16-3.44,4.72,4.72,0,0,0-3.81-1.78A4.89,4.89,0,0,0,16,61.3,5.61,5.61,0,0,0,14.4,65.09Z" transform="translate(-0.03 -0.08)"/><path class="cls-2" d="M43.38,73.67a11.45,11.45,0,0,1-3.29,2.05,9.51,9.51,0,0,1-3.39.6,6.6,6.6,0,0,1-4.6-1.46,4.82,4.82,0,0,1-1.61-3.73,5.06,5.06,0,0,1,2.2-4.2,7.47,7.47,0,0,1,2.21-1,22.09,22.09,0,0,1,2.73-.46,28.1,28.1,0,0,0,5.49-1.06q0-.63,0-0.8a3.4,3.4,0,0,0-.87-2.65,5.15,5.15,0,0,0-3.5-1,5.44,5.44,0,0,0-3.2.76A4.64,4.64,0,0,0,34,63.35l-3-.41a7.45,7.45,0,0,1,1.35-3.12A5.92,5.92,0,0,1,35.1,58a12.13,12.13,0,0,1,4.12-.64A10.91,10.91,0,0,1,43,57.9a5,5,0,0,1,2.14,1.38,4.85,4.85,0,0,1,1,2.09,17.32,17.32,0,0,1,.15,2.84v4.1a43.45,43.45,0,0,0,.2,5.43,6.82,6.82,0,0,0,.78,2.18H44A6.51,6.51,0,0,1,43.38,73.67ZM43.13,66.8a22.55,22.55,0,0,1-5,1.16,11.65,11.65,0,0,0-2.68.62,2.68,2.68,0,0,0-1.21,1,2.72,2.72,0,0,0,.5,3.51,4,4,0,0,0,2.73.82,6.34,6.34,0,0,0,3.16-.78,4.79,4.79,0,0,0,2-2.13,7.44,7.44,0,0,0,.5-3.08V66.8Z" transform="translate(-0.03 -0.08)"/><path class="cls-2" d="M51,75.91V57.76h2.75v2.55A6.47,6.47,0,0,1,56,58.16a6.39,6.39,0,0,1,3.23-.81,6,6,0,0,1,3.31.84,4.48,4.48,0,0,1,1.82,2.34A6.52,6.52,0,0,1,70,57.35a5.53,5.53,0,0,1,4.15,1.5,6.39,6.39,0,0,1,1.45,4.61V75.91H72.54V64.48a8.42,8.42,0,0,0-.3-2.66,2.58,2.58,0,0,0-1.08-1.31,3.39,3.39,0,0,0-1.85-.5,4.3,4.3,0,0,0-3.18,1.27,5.61,5.61,0,0,0-1.26,4.08V75.91H61.79V64.12A5.19,5.19,0,0,0,61,61a2.85,2.85,0,0,0-2.46-1,4.47,4.47,0,0,0-2.4.68,3.88,3.88,0,0,0-1.6,2,11.25,11.25,0,0,0-.5,3.79v9.42H51Z" transform="translate(-0.03 -0.08)"/><path class="cls-3" d="M98,72.53v3.38H79.07a6.21,6.21,0,0,1,.41-2.44,12.9,12.9,0,0,1,2.31-3.81,36.24,36.24,0,0,1,4.6-4.34,39,39,0,0,0,6.31-6.06A7.26,7.26,0,0,0,94.34,55a4.7,4.7,0,0,0-1.49-3.53,5.39,5.39,0,0,0-3.9-1.44,5.49,5.49,0,0,0-4.06,1.52,5.76,5.76,0,0,0-1.54,4.22l-3.61-.37a8.89,8.89,0,0,1,2.79-6.16A9.53,9.53,0,0,1,89,47.16a9.08,9.08,0,0,1,6.52,2.29A7.5,7.5,0,0,1,98,55.11a8.59,8.59,0,0,1-.7,3.38A13.11,13.11,0,0,1,94.91,62a56.86,56.86,0,0,1-5.42,5q-3.16,2.66-4.06,3.6a11.58,11.58,0,0,0-1.48,1.9H98Z" transform="translate(-0.03 -0.08)"/><path class="cls-2" d="M105.76,75.91L100.2,57.76h3.18l2.89,10.48,1.08,3.9q0.07-.29.94-3.74l2.89-10.63h3.16l2.72,10.53L118,71.76l1-3.5,3.11-10.49h3l-5.67,18.15h-3.2L113.34,65l-0.7-3.09-3.67,14h-3.21Z" transform="translate(-0.03 -0.08)"/><path class="cls-2" d="M126.54,66.83q0-5,2.8-7.47a8.45,8.45,0,0,1,5.71-2,8.15,8.15,0,0,1,6.12,2.45,9.33,9.33,0,0,1,2.38,6.78,12,12,0,0,1-1.05,5.51,7.43,7.43,0,0,1-3.06,3.12A8.91,8.91,0,0,1,135,76.32a8.16,8.16,0,0,1-6.16-2.44Q126.54,71.43,126.54,66.83Zm3.16,0a7.73,7.73,0,0,0,1.52,5.22,5.07,5.07,0,0,0,7.64,0q1.52-1.74,1.52-5.31a7.5,7.5,0,0,0-1.53-5.1,5.07,5.07,0,0,0-7.63,0A7.7,7.7,0,0,0,129.7,66.83Z" transform="translate(-0.03 -0.08)"/><path class="cls-2" d="M147.11,75.91V57.76h2.77v2.75a7.51,7.51,0,0,1,2-2.55,3.42,3.42,0,0,1,2-.62,6,6,0,0,1,3.16,1l-1.06,2.85a4.4,4.4,0,0,0-2.26-.67,2.93,2.93,0,0,0-1.81.61,3.28,3.28,0,0,0-1.15,1.68,12,12,0,0,0-.51,3.59v9.5h-3.08Z" transform="translate(-0.03 -0.08)"/><path class="cls-2" d="M158.82,75.91V50.86h3.08V65.14l7.28-7.38h4l-6.94,6.73,7.64,11.42h-3.79l-6-9.28-2.17,2.08v7.19h-3.08Z" transform="translate(-0.03 -0.08)"/><path class="cls-2" d="M0,89.91l3.3-8.59H4.55l3.52,8.59H6.77l-1-2.6H2.18l-0.94,2.6H0ZM2.5,86.38H5.42L4.52,84q-0.41-1.08-.61-1.78a11,11,0,0,1-.46,1.64Z" transform="translate(-0.03 -0.08)"/><path class="cls-2" d="M8.83,89.91V83.69H9.78v0.94a2.57,2.57,0,0,1,.67-0.87,1.17,1.17,0,0,1,.68-0.21,2.06,2.06,0,0,1,1.08.34l-0.36,1a1.51,1.51,0,0,0-.77-0.23,1,1,0,0,0-.62.21,1.13,1.13,0,0,0-.39.58,4.11,4.11,0,0,0-.18,1.23v3.26H8.83Z" transform="translate(-0.03 -0.08)"/><path class="cls-2" d="M13.81,89.91h-1V81.32h1.05v3.06a2.09,2.09,0,0,1,1.71-.84,2.61,2.61,0,0,1,1.09.23,2.22,2.22,0,0,1,.84.65,3.14,3.14,0,0,1,.52,1,4.17,4.17,0,0,1,.19,1.27,3.55,3.55,0,0,1-.79,2.47,2.47,2.47,0,0,1-1.9.87,2,2,0,0,1-1.73-.92v0.78Zm0-3.16a3.23,3.23,0,0,0,.3,1.62,1.51,1.51,0,0,0,2.54.21,2.73,2.73,0,0,0,.5-1.79,2.78,2.78,0,0,0-.48-1.8,1.47,1.47,0,0,0-1.17-.58,1.52,1.52,0,0,0-1.2.6A2.64,2.64,0,0,0,13.8,86.75Z" transform="translate(-0.03 -0.08)"/><path class="cls-2" d="M23.77,87.91L24.86,88a2.66,2.66,0,0,1-1,1.48,2.87,2.87,0,0,1-1.78.53A2.85,2.85,0,0,1,20,89.21a3.29,3.29,0,0,1-.8-2.36A3.44,3.44,0,0,1,20,84.41a2.74,2.74,0,0,1,2.1-.87,2.66,2.66,0,0,1,2,.85,3.38,3.38,0,0,1,.79,2.39q0,0.09,0,.28H20.25a2.39,2.39,0,0,0,.58,1.57,1.73,1.73,0,0,0,1.3.54,1.61,1.61,0,0,0,1-.3A2,2,0,0,0,23.77,87.91ZM20.31,86.2h3.47a2.11,2.11,0,0,0-.4-1.18,1.62,1.62,0,0,0-1.31-.61,1.68,1.68,0,0,0-1.22.49A1.92,1.92,0,0,0,20.31,86.2Z" transform="translate(-0.03 -0.08)"/><path class="cls-2" d="M26.19,82.53V81.32h1.05v1.21H26.19Zm0,7.38V83.69h1.05v6.22H26.19Z" transform="translate(-0.03 -0.08)"/><path class="cls-2" d="M31.15,89L31.3,89.9a3.91,3.91,0,0,1-.8.09,1.8,1.8,0,0,1-.89-0.18,1,1,0,0,1-.45-0.48A3.78,3.78,0,0,1,29,88.09V84.51H28.27V83.69H29V82.15l1-.63v2.17h1.06v0.82H30.09v3.64a1.84,1.84,0,0,0,.06.58,0.44,0.44,0,0,0,.18.21,0.7,0.7,0,0,0,.36.08A3.43,3.43,0,0,0,31.15,89Z" transform="translate(-0.03 -0.08)"/><path class="cls-2" d="M31.76,88.05l1-.16a1.46,1.46,0,0,0,.49,1,1.71,1.71,0,0,0,1.12.33,1.65,1.65,0,0,0,1.08-.3,0.88,0.88,0,0,0,.35-0.69,0.64,0.64,0,0,0-.31-0.56,4.57,4.57,0,0,0-1.08-.36,9.84,9.84,0,0,1-1.61-.51,1.54,1.54,0,0,1-.91-1.43,1.6,1.6,0,0,1,.19-0.77A1.71,1.71,0,0,1,32.65,84a2.17,2.17,0,0,1,.67-0.31,3.19,3.19,0,0,1,.91-0.13,3.6,3.6,0,0,1,1.29.21,1.75,1.75,0,0,1,.82.57,2.23,2.23,0,0,1,.36,1l-1,.14a1.13,1.13,0,0,0-.41-0.75,1.49,1.49,0,0,0-1-.27,1.72,1.72,0,0,0-1,.24,0.7,0.7,0,0,0-.31.56,0.58,0.58,0,0,0,.13.37,0.93,0.93,0,0,0,.4.28l0.93,0.27a13,13,0,0,1,1.56.49,1.58,1.58,0,0,1,.69.55,1.55,1.55,0,0,1,.25.9,1.77,1.77,0,0,1-.31,1,2,2,0,0,1-.89.72,3.23,3.23,0,0,1-1.31.25,2.92,2.92,0,0,1-1.85-.5A2.34,2.34,0,0,1,31.76,88.05Z" transform="translate(-0.03 -0.08)"/><path class="cls-2" d="M38.19,89.91V81.32h1.05v4.9l2.5-2.53H43.1L40.73,86l2.62,3.91H42L40,86.73l-0.74.71v2.47H38.19Z" transform="translate(-0.03 -0.08)"/><path class="cls-2" d="M44.17,89.91V83.69h0.95v0.94a2.57,2.57,0,0,1,.67-0.87,1.17,1.17,0,0,1,.68-0.21,2.06,2.06,0,0,1,1.08.34l-0.36,1a1.51,1.51,0,0,0-.77-0.23,1,1,0,0,0-.62.21,1.13,1.13,0,0,0-.39.58,4.11,4.11,0,0,0-.18,1.23v3.26H44.17Z" transform="translate(-0.03 -0.08)"/><path class="cls-2" d="M52.24,89.14a3.93,3.93,0,0,1-1.13.7,3.26,3.26,0,0,1-1.16.21,2.26,2.26,0,0,1-1.58-.5,1.65,1.65,0,0,1-.55-1.28A1.7,1.7,0,0,1,48,87.43a1.72,1.72,0,0,1,.54-0.61,2.56,2.56,0,0,1,.76-0.35,7.54,7.54,0,0,1,.94-0.16A9.64,9.64,0,0,0,52.15,86q0-.22,0-0.28a1.16,1.16,0,0,0-.3-0.91,1.77,1.77,0,0,0-1.2-.36,1.86,1.86,0,0,0-1.1.26,1.59,1.59,0,0,0-.52.92l-1-.14a2.56,2.56,0,0,1,.46-1.07,2,2,0,0,1,.93-0.63,4.16,4.16,0,0,1,1.41-.22,3.74,3.74,0,0,1,1.29.19,1.71,1.71,0,0,1,.73.47,1.66,1.66,0,0,1,.33.72,5.94,5.94,0,0,1,.05,1V87.3a14.93,14.93,0,0,0,.07,1.86,2.35,2.35,0,0,0,.27.75h-1.1A2.24,2.24,0,0,1,52.24,89.14Zm-0.09-2.36a7.74,7.74,0,0,1-1.72.4,4,4,0,0,0-.92.21,0.92,0.92,0,0,0-.42.34,0.93,0.93,0,0,0,.17,1.2,1.37,1.37,0,0,0,.93.28A2.18,2.18,0,0,0,51.28,89a1.64,1.64,0,0,0,.7-0.73,2.55,2.55,0,0,0,.17-1.05V86.79ZM49,82.47v-1.2h1.1v1.2H49Zm2.19,0v-1.2h1.1v1.2h-1.1Z" transform="translate(-0.03 -0.08)"/><path class="cls-2" d="M55.1,89.91v-5.4H54.17V83.69H55.1V83a2.9,2.9,0,0,1,.11-0.93,1.35,1.35,0,0,1,.54-0.67,1.93,1.93,0,0,1,1.08-.25,5.16,5.16,0,0,1,1,.11l-0.16.92A3.54,3.54,0,0,0,57,82.14a0.92,0.92,0,0,0-.68.21,1.11,1.11,0,0,0-.2.77v0.57h1.21v0.82H56.15v5.4h-1Z" transform="translate(-0.03 -0.08)"/><path class="cls-2" d="M60.49,89l0.15,0.93a3.91,3.91,0,0,1-.8.09A1.8,1.8,0,0,1,59,89.81a1,1,0,0,1-.45-0.48,3.78,3.78,0,0,1-.13-1.25V84.51H57.61V83.69h0.77V82.15l1-.63v2.17h1.06v0.82H59.43v3.64a1.84,1.84,0,0,0,.06.58,0.44,0.44,0,0,0,.18.21A0.7,0.7,0,0,0,60,89,3.43,3.43,0,0,0,60.49,89Z" transform="translate(-0.03 -0.08)"/><path class="cls-2" d="M65.78,87.91L66.87,88a2.66,2.66,0,0,1-1,1.48A3.24,3.24,0,0,1,62,89.21a3.29,3.29,0,0,1-.8-2.36A3.44,3.44,0,0,1,62,84.41a2.74,2.74,0,0,1,2.1-.87,2.66,2.66,0,0,1,2,.85,3.38,3.38,0,0,1,.79,2.39q0,0.09,0,.28H62.26a2.39,2.39,0,0,0,.58,1.57,1.73,1.73,0,0,0,1.3.54,1.61,1.61,0,0,0,1-.3A2,2,0,0,0,65.78,87.91ZM62.32,86.2h3.47a2.11,2.11,0,0,0-.4-1.18,1.62,1.62,0,0,0-1.31-.61,1.68,1.68,0,0,0-1.22.49A1.92,1.92,0,0,0,62.32,86.2Z" transform="translate(-0.03 -0.08)"/><path class="cls-2" d="M72.27,89.91V89a2.28,2.28,0,0,1-2,1.05,2.52,2.52,0,0,1-1-.21,1.69,1.69,0,0,1-.71-0.53,2,2,0,0,1-.33-0.78,5.36,5.36,0,0,1-.06-1V83.69h1.05v3.45a6.15,6.15,0,0,0,.06,1.11,1.1,1.1,0,0,0,.42.65,1.31,1.31,0,0,0,.8.24,1.74,1.74,0,0,0,.89-0.24A1.35,1.35,0,0,0,72,88.24,3.32,3.32,0,0,0,72.16,87V83.69h1.05v6.22H72.27ZM69,82.47v-1.2h1.1v1.2H69Zm2.19,0v-1.2h1.1v1.2h-1.1Z" transform="translate(-0.03 -0.08)"/><path class="cls-2" d="M75.84,89.91h-1V81.32h1.05v3.06a2.09,2.09,0,0,1,1.71-.84,2.61,2.61,0,0,1,1.09.23,2.22,2.22,0,0,1,.84.65,3.14,3.14,0,0,1,.52,1,4.17,4.17,0,0,1,.19,1.27,3.55,3.55,0,0,1-.79,2.47,2.47,2.47,0,0,1-1.9.87,2,2,0,0,1-1.73-.92v0.78Zm0-3.16a3.23,3.23,0,0,0,.3,1.62,1.51,1.51,0,0,0,2.54.21,2.73,2.73,0,0,0,.5-1.79A2.78,2.78,0,0,0,78.7,85a1.47,1.47,0,0,0-1.17-.58,1.52,1.52,0,0,0-1.2.6A2.64,2.64,0,0,0,75.83,86.75Z" transform="translate(-0.03 -0.08)"/><path class="cls-2" d="M85.8,87.91L86.89,88a2.66,2.66,0,0,1-1,1.48A3.24,3.24,0,0,1,82,89.21a3.29,3.29,0,0,1-.8-2.36A3.44,3.44,0,0,1,82,84.41a2.74,2.74,0,0,1,2.1-.87,2.66,2.66,0,0,1,2,.85,3.38,3.38,0,0,1,.79,2.39q0,0.09,0,.28H82.28a2.39,2.39,0,0,0,.58,1.57,1.73,1.73,0,0,0,1.3.54,1.61,1.61,0,0,0,1-.3A2,2,0,0,0,85.8,87.91ZM82.34,86.2h3.47a2.11,2.11,0,0,0-.4-1.18,1.62,1.62,0,0,0-1.31-.61,1.68,1.68,0,0,0-1.22.49A1.92,1.92,0,0,0,82.34,86.2Z" transform="translate(-0.03 -0.08)"/><path class="cls-2" d="M88.2,89.91V83.69h0.95v0.94a2.57,2.57,0,0,1,.67-0.87,1.17,1.17,0,0,1,.68-0.21,2.06,2.06,0,0,1,1.08.34l-0.36,1a1.51,1.51,0,0,0-.77-0.23,1,1,0,0,0-.62.21,1.13,1.13,0,0,0-.39.58,4.11,4.11,0,0,0-.18,1.23v3.26H88.2Z" transform="translate(-0.03 -0.08)"/><path class="cls-2" d="M92.19,89.91V81.32h1.05v8.59H92.19Z" transform="translate(-0.03 -0.08)"/><path class="cls-2" d="M98.94,89.14a3.93,3.93,0,0,1-1.13.7,3.26,3.26,0,0,1-1.16.21,2.26,2.26,0,0,1-1.58-.5,1.65,1.65,0,0,1-.55-1.28,1.7,1.7,0,0,1,.21-0.83,1.72,1.72,0,0,1,.54-0.61A2.56,2.56,0,0,1,96,86.48,7.54,7.54,0,0,1,97,86.32,9.64,9.64,0,0,0,98.85,86q0-.22,0-0.28a1.16,1.16,0,0,0-.3-0.91,1.77,1.77,0,0,0-1.2-.36,1.86,1.86,0,0,0-1.1.26,1.59,1.59,0,0,0-.52.92l-1-.14a2.56,2.56,0,0,1,.46-1.07,2,2,0,0,1,.93-0.63,4.16,4.16,0,0,1,1.41-.22,3.74,3.74,0,0,1,1.29.19,1.71,1.71,0,0,1,.73.47,1.66,1.66,0,0,1,.33.72,5.94,5.94,0,0,1,.05,1V87.3a14.93,14.93,0,0,0,.07,1.86,2.35,2.35,0,0,0,.27.75h-1.1A2.24,2.24,0,0,1,98.94,89.14Zm-0.09-2.36a7.74,7.74,0,0,1-1.72.4,4,4,0,0,0-.92.21,0.92,0.92,0,0,0-.42.34,0.93,0.93,0,0,0,.17,1.2,1.37,1.37,0,0,0,.93.28A2.18,2.18,0,0,0,98,89a1.64,1.64,0,0,0,.7-0.73,2.55,2.55,0,0,0,.17-1.05V86.79Z" transform="translate(-0.03 -0.08)"/><path class="cls-2" d="M101.13,88.05l1-.16a1.46,1.46,0,0,0,.49,1,1.71,1.71,0,0,0,1.12.33,1.65,1.65,0,0,0,1.08-.3,0.88,0.88,0,0,0,.35-0.69,0.64,0.64,0,0,0-.31-0.56,4.57,4.57,0,0,0-1.08-.36,9.84,9.84,0,0,1-1.61-.51,1.54,1.54,0,0,1-.91-1.43,1.6,1.6,0,0,1,.19-0.77A1.71,1.71,0,0,1,102,84a2.17,2.17,0,0,1,.67-0.31,3.19,3.19,0,0,1,.91-0.13,3.6,3.6,0,0,1,1.29.21,1.75,1.75,0,0,1,.82.57,2.23,2.23,0,0,1,.36,1l-1,.14a1.13,1.13,0,0,0-.41-0.75,1.49,1.49,0,0,0-1-.27,1.72,1.72,0,0,0-1,.24,0.7,0.7,0,0,0-.31.56,0.58,0.58,0,0,0,.13.37,0.93,0.93,0,0,0,.4.28l0.93,0.27a13,13,0,0,1,1.56.49,1.58,1.58,0,0,1,.69.55,1.55,1.55,0,0,1,.25.9,1.77,1.77,0,0,1-.31,1,2,2,0,0,1-.89.72,3.23,3.23,0,0,1-1.31.25,2.92,2.92,0,0,1-1.85-.5A2.34,2.34,0,0,1,101.13,88.05Z" transform="translate(-0.03 -0.08)"/><path class="cls-2" d="M107.13,88.05l1-.16a1.46,1.46,0,0,0,.49,1,1.71,1.71,0,0,0,1.12.33,1.65,1.65,0,0,0,1.08-.3,0.88,0.88,0,0,0,.35-0.69,0.64,0.64,0,0,0-.31-0.56,4.57,4.57,0,0,0-1.08-.36,9.84,9.84,0,0,1-1.61-.51,1.54,1.54,0,0,1-.91-1.43,1.6,1.6,0,0,1,.19-0.77A1.71,1.71,0,0,1,108,84a2.17,2.17,0,0,1,.67-0.31,3.19,3.19,0,0,1,.91-0.13,3.6,3.6,0,0,1,1.29.21,1.75,1.75,0,0,1,.82.57,2.23,2.23,0,0,1,.36,1l-1,.14a1.13,1.13,0,0,0-.41-0.75,1.49,1.49,0,0,0-1-.27,1.72,1.72,0,0,0-1,.24,0.7,0.7,0,0,0-.31.56,0.58,0.58,0,0,0,.13.37,0.93,0.93,0,0,0,.4.28l0.93,0.27a13,13,0,0,1,1.56.49,1.58,1.58,0,0,1,.69.55,1.55,1.55,0,0,1,.25.9,1.77,1.77,0,0,1-.31,1,2,2,0,0,1-.89.72,3.23,3.23,0,0,1-1.31.25,2.92,2.92,0,0,1-1.85-.5A2.34,2.34,0,0,1,107.13,88.05Z" transform="translate(-0.03 -0.08)"/><path class="cls-2" d="M117.63,89.91V89a2.28,2.28,0,0,1-2,1.05,2.52,2.52,0,0,1-1-.21,1.69,1.69,0,0,1-.71-0.53,2,2,0,0,1-.33-0.78,5.36,5.36,0,0,1-.06-1V83.69h1.05v3.45a6.15,6.15,0,0,0,.06,1.11,1.1,1.1,0,0,0,.42.65,1.31,1.31,0,0,0,.8.24,1.74,1.74,0,0,0,.89-0.24,1.35,1.35,0,0,0,.59-0.66,3.32,3.32,0,0,0,.17-1.22V83.69h1.05v6.22h-0.94Z" transform="translate(-0.03 -0.08)"/><path class="cls-2" d="M120.23,89.91V83.69h0.95v0.88a2.24,2.24,0,0,1,2-1,2.6,2.6,0,0,1,1,.2,1.63,1.63,0,0,1,.71.53,2,2,0,0,1,.33.78,6,6,0,0,1,.06,1v3.83h-1.05V86.12a2.84,2.84,0,0,0-.12-1,1,1,0,0,0-.44-0.51,1.39,1.39,0,0,0-.74-0.19,1.71,1.71,0,0,0-1.16.43,2.11,2.11,0,0,0-.49,1.62v3.4h-1.05Z" transform="translate(-0.03 -0.08)"/><path class="cls-2" d="M126.71,90.42l1,0.15a1,1,0,0,0,.36.69,1.76,1.76,0,0,0,1.07.29,1.88,1.88,0,0,0,1.13-.29,1.44,1.44,0,0,0,.54-0.82,6.74,6.74,0,0,0,.08-1.35,2.17,2.17,0,0,1-1.72.81,2.35,2.35,0,0,1-2-.93,3.57,3.57,0,0,1-.7-2.22,4.13,4.13,0,0,1,.32-1.64,2.58,2.58,0,0,1,.93-1.16,2.52,2.52,0,0,1,1.44-.41,2.23,2.23,0,0,1,1.82.89V83.69h1v5.38a5.1,5.1,0,0,1-.3,2.06,2.16,2.16,0,0,1-.94,1,3.25,3.25,0,0,1-1.58.35,3,3,0,0,1-1.8-.5A1.69,1.69,0,0,1,126.71,90.42Zm0.87-3.74a2.7,2.7,0,0,0,.49,1.79,1.6,1.6,0,0,0,2.44,0,2.61,2.61,0,0,0,.49-1.75,2.55,2.55,0,0,0-.51-1.72,1.57,1.57,0,0,0-1.22-.58,1.52,1.52,0,0,0-1.2.57A2.54,2.54,0,0,0,127.58,86.69Z" transform="translate(-0.03 -0.08)"/><path class="cls-2" d="M141.06,86.54v-1h3.64v3.19a6.43,6.43,0,0,1-1.73,1,5.13,5.13,0,0,1-1.83.34,4.88,4.88,0,0,1-2.3-.54,3.58,3.58,0,0,1-1.56-1.57,4.94,4.94,0,0,1-.53-2.29,5.32,5.32,0,0,1,.52-2.34,3.49,3.49,0,0,1,1.51-1.61,4.73,4.73,0,0,1,2.27-.53,4.49,4.49,0,0,1,1.68.3,2.79,2.79,0,0,1,1.18.84,3.73,3.73,0,0,1,.65,1.41l-1,.28a3.17,3.17,0,0,0-.48-1,2,2,0,0,0-.82-0.6,3,3,0,0,0-1.18-.23,3.49,3.49,0,0,0-1.35.24,2.52,2.52,0,0,0-.92.62,3,3,0,0,0-.54.85,4.5,4.5,0,0,0-.33,1.73,4.19,4.19,0,0,0,.4,1.92,2.53,2.53,0,0,0,1.15,1.15,3.56,3.56,0,0,0,1.61.38,3.81,3.81,0,0,0,1.44-.28,3.72,3.72,0,0,0,1.07-.61v-1.6h-2.53Z" transform="translate(-0.03 -0.08)"/><path class="cls-2" d="M146.24,89.91V83.69h0.94v0.87a2.22,2.22,0,0,1,.78-0.74,2.19,2.19,0,0,1,1.11-.28,2,2,0,0,1,1.13.29,1.54,1.54,0,0,1,.62.8,2.23,2.23,0,0,1,1.92-1.09,1.89,1.89,0,0,1,1.42.51,2.19,2.19,0,0,1,.5,1.58v4.27h-1V86a2.89,2.89,0,0,0-.1-0.91,0.88,0.88,0,0,0-.37-0.45,1.16,1.16,0,0,0-.63-0.17,1.47,1.47,0,0,0-1.09.44,1.92,1.92,0,0,0-.43,1.4v3.62h-1.05v-4a1.78,1.78,0,0,0-.26-1.05,1,1,0,0,0-.84-0.35,1.53,1.53,0,0,0-.82.23,1.33,1.33,0,0,0-.55.69,3.86,3.86,0,0,0-.17,1.3v3.23h-1.05Z" transform="translate(-0.03 -0.08)"/><path class="cls-2" d="M157.21,89.91h-1V81.32h1.05v3.06a2.09,2.09,0,0,1,1.71-.84,2.61,2.61,0,0,1,1.09.23,2.22,2.22,0,0,1,.84.65,3.14,3.14,0,0,1,.52,1,4.17,4.17,0,0,1,.19,1.27,3.55,3.55,0,0,1-.79,2.47,2.47,2.47,0,0,1-1.9.87,2,2,0,0,1-1.73-.92v0.78Zm0-3.16a3.23,3.23,0,0,0,.3,1.62,1.51,1.51,0,0,0,2.54.21,2.73,2.73,0,0,0,.5-1.79,2.78,2.78,0,0,0-.48-1.8,1.47,1.47,0,0,0-1.17-.58,1.52,1.52,0,0,0-1.2.6A2.64,2.64,0,0,0,157.2,86.75Z" transform="translate(-0.03 -0.08)"/><path class="cls-2" d="M163.08,89.91V81.32h1.14v3.53h4.46V81.32h1.14v8.59h-1.14v-4h-4.46v4h-1.14Z" transform="translate(-0.03 -0.08)"/></svg>