<?xml version="1.0" encoding="utf-8"?>
<!-- Generator: Adobe Illustrator 19.2.0, SVG Export Plug-In . SVG Version: 6.00 Build 0)  -->
<svg version="1.1" id="BUSINESS" xmlns="http://www.w3.org/2000/svg" xmlns:xlink="http://www.w3.org/1999/xlink" x="0px" y="0px"
	 viewBox="0 0 24 24" style="enable-background:new 0 0 24 24;" xml:space="preserve">
<style type="text/css">
	.st0{fill:#08538C;}
</style>
<g id="Personal">
	<path class="st0" d="M16,14l-4,5l-4-5c-4.4,0-8,3.6-8,8v1c0,0.6,0.4,1,1,1h14v-1H1v-1c0-3.7,2.9-6.7,6.5-7l4.5,5.8l4.5-5.8
		c3.6,0.3,6.5,3.3,6.5,7v1h-2v1h2c0.6,0,1-0.4,1-1v-1C24,17.6,20.4,14,16,14z"/>
	<rect x="17" y="23" class="st0" width="2" height="1"/>
	<path class="st0" d="M12,14c3.3,0,6-4.1,6-8c0-0.9-0.1-1.6-0.4-2.3C17.9,3.2,18,2.6,18,2V0h-8C7.8,0,6,1.8,6,4v2
		C6,9.9,8.7,14,12,14z M7,4c0-1.7,1.3-3,3-3h7v1c0,1.7-1.3,3-3,3H7V4z M14,6c1.1,0,2.1-0.5,2.9-1.2C16.9,5.2,17,5.6,17,6
		c0,3.5-2.5,7-5,7S7,9.5,7,6H14z"/>
</g>
</svg>
