<?xml version="1.0" encoding="utf-8"?>
<!-- Generator: Adobe Illustrator 19.2.1, SVG Export Plug-In . SVG Version: 6.00 Build 0)  -->
<svg version="1.1" id="BUSINESS" xmlns="http://www.w3.org/2000/svg" xmlns:xlink="http://www.w3.org/1999/xlink" x="0px" y="0px"
	 viewBox="0 0 24 24" style="enable-background:new 0 0 24 24;" xml:space="preserve">
<style type="text/css">
	.st0{fill:#CC0000;}
</style>
<g id="Advice">
	<path class="st0" d="M11.4,16.8L8,20l-3.4-3.2C1.9,18,0,20.8,0,24h16C16,20.8,14.1,18,11.4,16.8z M1.1,23c0.3-2.1,1.5-3.9,3.4-5
		L8,21.4l3.6-3.4c1.8,1.1,3.1,2.9,3.4,5H1.1z"/>
	<path class="st0" d="M8,17c2.2,0,4-1.8,4-4v-2h-1v2c0,1.7-1.3,3-3,3s-3-1.3-3-3v-2h3c2.2,0,4-1.8,4-4H6C4.9,7,4,7.9,4,9v4
		C4,15.2,5.8,17,8,17z M5,9c0-0.6,0.4-1,1-1h4.8c-0.4,1.2-1.5,2-2.8,2H5V9z"/>
	<rect x="14" y="4" class="st0" width="6" height="1"/>
	<rect x="14" y="7" class="st0" width="6" height="1"/>
	<path class="st0" d="M11,2c0-0.6,0.4-1,1-1h10c0.6,0,1,0.4,1,1h1c0-1.1-0.9-2-2-2H12c-1.1,0-2,0.9-2,2v3h1V2z"/>
	<rect x="23" y="4" class="st0" width="1" height="2"/>
	<path class="st0" d="M23,10c0,0.6-0.4,1-1,1h-3.3L16,13v-2h-2v1h1v3l4-3h3c1.1,0,2-0.9,2-2V8h-1V10z"/>
</g>
</svg>
