<?xml version="1.0" encoding="utf-8"?>
<!-- Generator: Adobe Illustrator 19.2.1, SVG Export Plug-In . SVG Version: 6.00 Build 0)  -->
<svg version="1.1" id="BUSINESS" xmlns="http://www.w3.org/2000/svg" xmlns:xlink="http://www.w3.org/1999/xlink" x="0px" y="0px"
	 viewBox="0 0 24 24" style="enable-background:new 0 0 24 24;" xml:space="preserve">
<style type="text/css">
	.st0{fill:#CC0000;}
</style>
<g id="Tracking">
	<polygon class="st0" points="12,12.3 8.4,8.6 7.6,9.4 12,13.7 18.4,7.4 17.6,6.6 	"/>
	<path class="st0" d="M23.9,11c-0.2-1.8-0.7-3.5-1.6-5.1l-0.7,0.7c0.7,1.3,1.2,2.8,1.3,4.3H20v1h3c0,5.7-4.4,10.4-10,10.9V20h-1v3
		l0,0C5.9,23,1,18.1,1,12h3v-1H1C1.5,5.4,6.2,1,12,1l0,0v3h1V1.1c1.6,0.2,3,0.6,4.3,1.4L18,1.8c-1.5-0.9-3.2-1.5-5.1-1.6V0h-1l0,0
		l0,0C5.7,0,0.5,4.8,0,11l0,0l0,0c0,0.3,0,0.6,0,1c0,6.6,5.4,12,12,12l0,0l0,0h1v-0.1c6.1-0.5,11-5.7,11-11.9l0,0L23.9,11L23.9,11z"
		/>
	<path class="st0" d="M20.4,5l0.7-0.7c-0.4-0.5-0.9-1-1.4-1.4L19,3.6C19.5,4,20,4.5,20.4,5z"/>
</g>
</svg>
